<svg width="355" height="163" viewBox="0 0 355 163" fill="none" xmlns="http://www.w3.org/2000/svg">
<rect width="62.8501" height="62.8501" transform="matrix(0.973736 -0.228143 0.898208 0.43933 208.504 62.7865)" fill="#D9D9D9"/>
<rect width="53.5378" height="53.5378" transform="matrix(1.14307 -0.267883 -0.088719 0.783619 264.871 91.395)" fill="#762B2B"/>
<rect width="62.8501" height="62.8501" transform="matrix(0.973736 -0.228143 0.898208 0.43933 31.049 20.9754)" fill="#D9D9D9"/>
<rect width="53.5378" height="53.5378" transform="matrix(0.0886234 -0.78363 1.05439 0.515793 25.8525 63.7483)" fill="#762B2B"/>
<rect width="62.8501" height="62.8501" transform="matrix(0.973736 -0.228143 0.898208 0.43933 88.6234 49.2865)" fill="#D9D9D9"/>
<rect width="53.5378" height="53.5378" transform="matrix(0.0886234 -0.78363 1.05439 0.515793 83.4269 92.0594)" fill="#762B2B"/>
<rect width="62.8501" height="62.8501" transform="matrix(0.973736 -0.228143 0.898208 0.43933 146.198 77.7865)" fill="#D9D9D9"/>
<rect width="53.5378" height="53.5378" transform="matrix(1.14307 -0.267883 -0.088719 0.783619 202.565 106.395)" fill="#762B2B"/>
<rect width="53.5378" height="53.5378" transform="matrix(0.0886234 -0.78363 1.05439 0.515793 141.001 120.559)" fill="#762B2B"/>
</svg>
