<svg width="390" height="297" viewBox="0 0 390 297" fill="none" xmlns="http://www.w3.org/2000/svg">
    <rect width="62.8501" height="62.8501"
        transform="matrix(0.978922 0.204751 0.628384 0.777767 230.963 145.021)" fill="#D9D9D9" />
    <rect width="53.5378" height="53.5378"
        transform="matrix(1.14918 0.240297 -0.411578 0.672706 269.958 194.771)" fill="#762B2B" />
    <rect width="62.8501" height="62.8501"
        transform="matrix(0.978922 0.204751 0.628384 0.777767 87.8045 32.132)" fill="#D9D9D9" />
    <rect width="53.5378" height="53.5378"
        transform="matrix(0.411496 -0.672756 0.737618 0.913071 65.0183 68.7013)" fill="#762B2B" />
    <rect width="62.8501" height="62.8501"
        transform="matrix(0.978922 0.204751 0.628384 0.777767 128.02 82.1226)" fill="#D9D9D9" />
    <rect width="53.5378" height="53.5378"
        transform="matrix(0.411496 -0.672756 0.737618 0.913071 105.234 118.692)" fill="#762B2B" />
    <rect width="62.8501" height="62.8501"
        transform="matrix(0.978922 0.204751 0.628384 0.777767 168.155 132.284)" fill="#D9D9D9" />
    <rect width="53.5378" height="53.5378"
        transform="matrix(1.14918 0.240297 -0.411578 0.672706 207.151 182.034)" fill="#762B2B" />
    <rect width="53.5378" height="53.5378"
        transform="matrix(0.411496 -0.672756 0.737618 0.913071 145.369 168.854)" fill="#762B2B" />
</svg>